PathFileType	4	(X/Y/Z)	Patient4_TMGait_0pt6_02_left_32.trc.trc
DataRate	CameraRate	NumFrames	NumMarkers	Units	OrigDataRate	OrigDataStartFrame	OrigNumFrames
83.832335329341	83.832335329341	5	33	mm	83.832335329341	89	       141
Frame#	Time	Sacral			L.Shoulder			Chest			R.Shoulder			Neck			R.ASIS			L.ASIS			R.Thigh.Superior			R.Thigh.Lateral			R.Thigh.Inferior			R.Patella			L.Thigh.Superior			L.Thigh.Lateral			L.Thigh.Inferior			L.Patella			L.Shank.Superior			L.Shank.Lateral			L.Shank.Inferior			R.Shank.Superior			R.Shank.Lateral			R.Shank.Inferior			R.Heel			R.Midfoot.Superior			R.Midfoot.Lateral			R.Toe			L.Heel			L.Midfoot.Lateral			L.Midfoot.Superior			L.Toe			L.Elbow			L.Wrist			R.Elbow			R.Wrist			
		X1	Y1	Z1	X2	Y2	Z2	X3	Y3	Z3	X4	Y4	Z4	X5	Y5	Z5	X6	Y6	Z6	X7	Y7	Z7	X8	Y8	Z8	X9	Y9	Z9	X10	Y10	Z10	X11	Y11	Z11	X12	Y12	Z12	X13	Y13	Z13	X14	Y14	Z14	X15	Y15	Z15	X16	Y16	Z16	X17	Y17	Z17	X18	Y18	Z18	X19	Y19	Z19	X20	Y20	Z20	X21	Y21	Z21	X22	Y22	Z22	X23	Y23	Z23	X24	Y24	Z24	X25	Y25	Z25	X26	Y26	Z26	X27	Y27	Z27	X28	Y28	Z28	X29	Y29	Z29	X30	Y30	Z30	X31	Y31	Z31	X32	Y32	Z32	X33	Y33	Z33	

89	40.149714285714	801.481268197318	1003.503156454464	491.811048860113	995.821559701833	1426.246128382143	304.626327104200	1101.559723353325	1346.795885860446	458.303293505204	1031.738810801618	1426.964071076575	634.561029339270	1008.049323054099	1484.530702289686	454.772857605618	1033.891211915660	935.777945406735	600.448198609377	1001.695667408976	955.118391744491	327.924395454699	1093.861810042039	747.123343382558	570.228594029706	1025.880677343384	632.077434422325	630.061034883882	1107.215447162660	588.292330225045	547.706769403810	1118.308149219877	498.488832332318	553.483334385574	1059.562074971825	742.159747311503	352.277258449649	981.619922487355	624.109531388930	285.763243294470	1073.857229675267	543.497512218831	341.968745291040	1068.784407864883	455.761045270859	338.536355593660	997.771892634092	397.819549972379	333.936645109346	854.516280601153	361.644495099576	287.317339427626	834.446844086310	235.310032237137	344.997212605456	1092.834917729023	408.139868824112	561.289552956147	1027.276626153565	301.450210175543	624.464700617364	1071.449825214758	208.393396039221	560.251026727706	944.000089074536	42.031749774413	532.177372629473	1114.593676413302	97.535732189033	564.180375992340	1028.624911656402	36.966052195290	605.438825804035	1236.261836430585	46.581312857746	590.145528672935	641.288048525347	182.619534719091	386.734974690293	694.659142746099	134.725368579359	305.500657440531	799.264234770873	135.023580642335	325.579468487010	869.358783846221	30.349395653674	296.319758532846	954.863131779709	1080.821814200096	179.705370290631	1203.324444480040	1024.142146506728	194.147955493162	949.571622246538	1092.631396160508	765.212885156347	992.253693987630	833.937543322891	752.440775235657	
90	40.161642857143	801.529013106211	1004.114915927243	494.984333133456	994.031390254887	1426.815348974973	306.107266030551	1101.206776761537	1347.502533998641	458.909154569499	1032.864712912083	1427.580718096006	635.770434485896	1007.523213789911	1485.187256631492	456.201050187925	1034.387662991750	936.467075272848	601.902316045894	1001.916836442036	955.690989934482	329.400381051697	1092.449411213376	746.209379579864	572.368852082497	1023.187718154388	631.919015700887	631.683532806947	1103.918380673169	587.521374716186	549.039334277500	1114.018396258674	497.719323396942	554.460387227338	1063.408715677723	745.861495525726	353.790624597768	989.581804496225	626.247866288282	286.311583366999	1084.323728194215	547.869530167196	342.226232592841	1081.001215489547	459.271434650995	338.352459538009	1008.996619550390	400.973540630099	333.963520669051	864.493267824896	368.300101970012	288.130374687460	841.981786934723	242.193248941542	345.575017647869	1088.000437242197	407.563790196982	562.132237410079	1021.937832510331	301.105100167754	625.023273555355	1065.338750455301	207.986590585478	560.526245233847	936.891914651916	42.006055751035	532.279333474758	1107.499138927171	97.448413324961	564.250689087149	1021.501819036765	36.925782672452	605.553585374863	1229.199227451474	46.219818843228	590.283053631573	647.754711727047	196.743383950165	388.173643753403	698.666196200150	146.300505703693	306.644158977285	803.712971267778	141.358718053173	326.339978829254	868.129967884215	30.638340269858	296.570331525686	951.630550349711	1080.490626056164	183.098272146930	1197.781620289266	1012.062734983432	195.789574672663	958.345337565137	1091.361068643057	767.472771598094	1010.988399192561	834.637876840281	751.793810882671	
91	40.173571428571	801.497191905413	1004.718727425376	497.992666961681	992.107879424231	1427.344756976410	307.490177041305	1100.767401623849	1348.161996911536	459.366591246164	1034.010433811363	1428.181189364840	636.849466065773	1006.932289131519	1485.827687564829	457.505240688365	1034.737172702648	937.077170485578	603.271838473830	1001.933558697990	956.166912073463	330.801917606124	1090.909884685775	745.336314270567	574.292513169782	1020.426952503183	631.763733011167	633.161235459058	1100.525596157304	586.758854236865	550.222448123237	1109.598455525684	496.972532752403	555.320365300639	1066.874770307993	749.761556229237	355.211637128519	996.983918927671	628.819823698333	286.732537164519	1094.065178704758	552.725065821894	342.376241483156	1092.642845753384	463.381458780471	338.076387934395	1019.936540515829	404.569114705361	333.916820811003	874.456747215464	374.618869063396	288.876439705545	850.157763768754	248.677568458971	346.164630108175	1083.071734618376	407.011069974231	562.869381102351	1016.527635977425	300.793669564753	625.529220794947	1059.170840844441	207.610409914083	560.751423157551	929.740492673474	42.020308708152	532.367392800121	1100.385941009476	97.311610718799	564.305614393294	1014.333239232196	36.898485305079	605.649703649029	1222.101399614722	45.807461115536	590.398178408953	655.330885873150	208.835365669064	389.635469971643	704.199173328083	156.469029140158	307.827327801104	809.488617740371	147.448891554179	327.129317579615	869.301193035192	31.555263903072	296.840294954468	948.374736404416	1080.072695715868	186.409936793600	1191.321186265928	999.023088241936	197.240375555557	967.265243943467	1090.329738353756	769.636089427263	1030.284943465125	836.149736695699	750.733412711690	
92	40.185500000000	801.373892333339	1005.340455190048	500.830906952794	990.112404663442	1427.858640309779	308.781631512648	1100.256932773102	1348.788791149040	459.700520151746	1035.168875311728	1428.799811671293	637.802017856176	1006.316680596201	1486.471741238093	458.686877101885	1034.943320437251	937.637139300535	604.562469887484	1001.704415468762	956.581843489419	332.143867286535	1089.253181839202	744.538404795918	575.949116752476	1017.615738696358	631.637222363148	634.479885747446	1097.043122836515	586.019203996745	551.236701539487	1105.057952953757	496.263040432426	556.043502400334	1069.920208796595	753.848163021795	356.558479420456	1003.773877428780	631.799120324447	287.040939419842	1103.039773643313	558.004758693732	342.406434651204	1103.639331481555	468.039181533310	337.667032166034	1030.542300030277	408.544951794021	333.765490311178	884.346289834385	380.415975899566	289.516060175612	859.020466969237	254.525730796958	346.698286562719	1078.060120064613	406.498948699990	563.494430804625	1011.058152431141	300.537632061042	625.989745898576	1052.953522977527	207.278145676978	560.932315901866	922.556083573845	42.073456951322	532.452803624238	1093.263689531381	97.151030677023	564.357157369450	1007.133356638644	36.886834416781	605.734225238204	1214.977943868066	45.376480741188	590.498554215421	663.983249534953	218.401156937540	391.027664542748	711.347635008021	164.761160490827	308.970357560382	816.755482946313	152.995018237580	327.867642774641	873.295182673180	33.067325243186	297.102955337118	945.124346404141	1079.609108158568	189.681920153678	1183.813668152752	985.100431109968	198.491015786739	976.312509443327	1089.565486874267	771.669778517712	1050.075204076285	838.588239275209	749.214297733808	
93	40.197428571429	801.145951394770	1006.006536711022	503.503521781197	988.097433706063	1428.376798521702	309.990528426891	1099.691646151886	1349.398377031008	459.937202648883	1036.331583665744	1429.463441490120	638.637250290935	1005.709417610019	1487.134241837665	459.753895164900	1035.013493512918	938.168135362461	605.763643073200	1001.188515825181	956.970208899018	333.425871602519	1087.473612829620	743.828527460485	577.312309375175	1014.746522252735	631.556046616671	635.634365824767	1093.454914696394	585.309147886373	552.075586911512	1100.386777868642	495.599869596633	556.621600627200	1072.522353707882	758.102474578228	357.836970657887	1009.926645008621	635.140432672230	287.247530159035	1111.229840413196	563.632402636539	342.307725558128	1113.941313680927	473.178498588573	337.101135475159	1040.790007653786	412.824023773447	333.486463156590	894.134087125549	385.509203938901	290.009810235869	868.632969256738	259.519869124736	347.110152261403	1072.958356177268	406.039432268928	564.008294850648	1005.525587519141	300.349306189351	626.410559012930	1046.686743155052	206.998298779041	561.075606453088	915.349207940801	42.159460601602	532.542960756915	1086.139722530151	96.989151622951	564.414292371566	999.916134165468	36.890372564074	605.811920507487	1207.838300666322	44.953428085484	590.590293728187	673.714675783641	225.080165624340	392.265131910091	720.186045818198	170.814721029917	309.989669869204	825.656921268105	157.710203093429	328.470250577567	880.413153233796	35.041121491739	297.298867764080	941.900069277795	1079.140988659148	192.950294228681	1175.130965242729	970.430841893285	199.544604395161	985.460183648177	1089.088607627651	773.548752398182	1070.280438909013	842.062090282916	747.196516050348	
